<svg width="50" height="50" viewBox="0 0 50 50" fill="none" xmlns="http://www.w3.org/2000/svg">
<rect width="50" height="50" rx="25" fill="#F1F4F5"/>
<path d="M18 25.7596C18 24.4019 18 23.723 18.2745 23.1262C18.5489 22.5295 19.0644 22.0877 20.0953 21.2041L21.0953 20.3469C22.9586 18.7498 23.8902 17.9512 25 17.9512C26.1098 17.9512 27.0414 18.7498 28.9047 20.3469L29.9047 21.2041C30.9356 22.0877 31.4511 22.5295 31.7255 23.1262C32 23.723 32 24.4019 32 25.7596V30C32 31.8856 32 32.8284 31.4142 33.4142C30.8284 34 29.8856 34 28 34H22C20.1144 34 19.1716 34 18.5858 33.4142C18 32.8284 18 31.8856 18 30V25.7596Z" stroke="#111111" stroke-width="2"/>
<path d="M27.5 34V29C27.5 28.4477 27.0523 28 26.5 28H23.5C22.9477 28 22.5 28.4477 22.5 29V34" stroke="#111111" stroke-width="2" stroke-linecap="round" stroke-linejoin="round"/>
</svg>
