<svg width="50" height="50" viewBox="0 0 50 50" fill="none" xmlns="http://www.w3.org/2000/svg">
<rect width="50" height="50" rx="25" fill="#F1F4F5"/>
<circle cx="25" cy="21" r="3" stroke="#111111" stroke-width="2" stroke-linecap="round"/>
<path d="M28.2679 21C28.5332 20.5406 28.97 20.2054 29.4824 20.0681C29.9947 19.9309 30.5406 20.0027 31 20.2679C31.4594 20.5332 31.7946 20.97 31.9319 21.4824C32.0691 21.9947 31.9973 22.5406 31.7321 23C31.4668 23.4594 31.03 23.7946 30.5176 23.9319C30.0053 24.0691 29.4594 23.9973 29 23.7321C28.5406 23.4668 28.2054 23.03 28.0681 22.5176C27.9309 22.0053 28.0027 21.4594 28.2679 21L28.2679 21Z" stroke="#111111" stroke-width="2"/>
<path d="M18.2679 21C18.5332 20.5406 18.97 20.2054 19.4824 20.0681C19.9947 19.9309 20.5406 20.0027 21 20.2679C21.4594 20.5332 21.7946 20.97 21.9319 21.4824C22.0691 21.9947 21.9973 22.5406 21.7321 23C21.4668 23.4594 21.03 23.7946 20.5176 23.9319C20.0053 24.0691 19.4594 23.9973 19 23.7321C18.5406 23.4668 18.2054 23.03 18.0681 22.5176C17.9309 22.0053 18.0027 21.4594 18.2679 21L18.2679 21Z" stroke="#111111" stroke-width="2"/>
<path d="M29.8816 31L28.9013 31.1974L29.0629 32H29.8816V31ZM33.7202 29.9042L34.6627 29.5699L33.7202 29.9042ZM27.7808 27.7105L27.176 26.9142L26.0194 27.7927L27.2527 28.5597L27.7808 27.7105ZM32.8672 30H29.8816V32H32.8672V30ZM32.7777 30.2384C32.7707 30.2186 32.7642 30.181 32.7725 30.1354C32.7804 30.0921 32.7982 30.0593 32.8151 30.0383C32.8474 29.9982 32.874 30 32.8672 30V32C34.0132 32 35.1414 30.9194 34.6627 29.5699L32.7777 30.2384ZM30 28C31.6416 28 32.4027 29.1811 32.7777 30.2384L34.6627 29.5699C34.1976 28.2588 32.9485 26 30 26V28ZM28.3857 28.5069C28.7702 28.2148 29.282 28 30 28V26C28.8381 26 27.9028 26.3622 27.176 26.9142L28.3857 28.5069ZM27.2527 28.5597C28.2918 29.206 28.7271 30.3324 28.9013 31.1974L30.8619 30.8026C30.644 29.7204 30.0374 27.9364 28.309 26.8614L27.2527 28.5597Z" fill="#111111"/>
<path d="M22.2192 27.7105L22.7473 28.5597L23.9806 27.7927L22.824 26.9142L22.2192 27.7105ZM16.2798 29.9041L17.2223 30.2384L17.2223 30.2384L16.2798 29.9041ZM20.1184 31V32H20.937L21.0987 31.1974L20.1184 31ZM20 28C20.718 28 21.2299 28.2148 21.6143 28.5069L22.824 26.9142C22.0972 26.3621 21.1619 26 20 26V28ZM17.2223 30.2384C17.5973 29.1811 18.3584 28 20 28V26C17.0515 26 15.8024 28.2587 15.3373 29.5699L17.2223 30.2384ZM17.1328 30C17.126 30 17.1526 29.9982 17.1849 30.0383C17.2018 30.0593 17.2196 30.0921 17.2275 30.1354C17.2358 30.181 17.2293 30.2186 17.2223 30.2384L15.3373 29.5699C14.8586 30.9194 15.9868 32 17.1328 32V30ZM20.1184 30H17.1328V32H20.1184V30ZM21.0987 31.1974C21.2729 30.3324 21.7081 29.206 22.7473 28.5597L21.6911 26.8614C19.9626 27.9363 19.356 29.7203 19.138 30.8026L21.0987 31.1974Z" fill="#111111"/>
<path d="M25 27C28.5715 27 29.5919 29.5512 29.8834 31.0089C29.9917 31.5504 29.5523 32 29 32H21C20.4477 32 20.0083 31.5504 20.1166 31.0089C20.4081 29.5512 21.4285 27 25 27Z" stroke="#111111" stroke-width="2" stroke-linecap="round"/>
</svg>
