<svg width="50" height="48" viewBox="0 0 50 48" fill="none" xmlns="http://www.w3.org/2000/svg">
<rect width="50" height="48" rx="24" fill="white"/>
<path d="M20 26.3333C20 25.0872 20 24.4641 20.2679 24C20.4435 23.696 20.696 23.4435 21 23.2679C21.4641 23 22.0872 23 23.3333 23H26.6667C27.9128 23 28.5359 23 29 23.2679C29.304 23.4435 29.5565 23.696 29.7321 24C30 24.4641 30 25.0872 30 26.3333V28C30 28.9293 30 29.394 29.9231 29.7804C29.6075 31.3671 28.3671 32.6075 26.7804 32.9231C26.394 33 25.9293 33 25 33V33C24.0707 33 23.606 33 23.2196 32.9231C21.6329 32.6075 20.3925 31.3671 20.0769 29.7804C20 29.394 20 28.9293 20 28V26.3333Z" stroke="#33363F" stroke-width="2"/>
<path d="M22 21C22 20.0681 22 19.6022 22.1522 19.2346C22.3552 18.7446 22.7446 18.3552 23.2346 18.1522C23.6022 18 24.0681 18 25 18V18C25.9319 18 26.3978 18 26.7654 18.1522C27.2554 18.3552 27.6448 18.7446 27.8478 19.2346C28 19.6022 28 20.0681 28 21V23H22V21Z" stroke="#33363F" stroke-width="2"/>
<path d="M25 23V27" stroke="#33363F" stroke-width="2"/>
<path d="M28 15L26 18" stroke="#33363F" stroke-width="2"/>
<path d="M22 15L24 18" stroke="#33363F" stroke-width="2"/>
<path d="M20 28H15" stroke="#33363F" stroke-width="2"/>
<path d="M35 28H30" stroke="#33363F" stroke-width="2"/>
<path d="M33 21V22C33 23.6569 31.6569 25 30 25V25" stroke="#33363F" stroke-width="2"/>
<path d="M33 34V34C33 32.3431 31.6569 31 30 31V31" stroke="#33363F" stroke-width="2"/>
<path d="M17 21V22C17 23.6569 18.3431 25 20 25V25" stroke="#33363F" stroke-width="2"/>
<path d="M17 34V34C17 32.3431 18.3431 31 20 31V31" stroke="#33363F" stroke-width="2"/>
</svg>
