<svg width="50" height="48" viewBox="0 0 50 48" fill="none" xmlns="http://www.w3.org/2000/svg">
<rect width="50" height="48" rx="24" fill="white"/>
<path d="M33 24V29C33 30.8856 33 31.8284 32.4142 32.4142C31.8284 33 30.8856 33 29 33H19.5C18.1193 33 17 31.8807 17 30.5V30.5C17 29.1193 18.1193 28 19.5 28H29C30.8856 28 31.8284 28 32.4142 27.4142C33 26.8284 33 25.8856 33 24V19C33 17.1144 33 16.1716 32.4142 15.5858C31.8284 15 30.8856 15 29 15H21C19.1144 15 18.1716 15 17.5858 15.5858C17 16.1716 17 17.1144 17 19V30.5" stroke="#33363F" stroke-width="2"/>
<path d="M22 22L23.2929 23.2929C23.6834 23.6834 24.3166 23.6834 24.7071 23.2929L28 20" stroke="#33363F" stroke-width="2" stroke-linecap="round"/>
</svg>
