<svg width="50" height="48" viewBox="0 0 50 48" fill="none" xmlns="http://www.w3.org/2000/svg">
<rect width="50" height="48" rx="24" fill="white"/>
<path d="M25 16L23.8522 17.913C22.9498 19.417 22.4986 20.169 22.4986 21C22.4986 21.831 22.9498 22.583 23.8522 24.087L24.5713 25.2854C24.7627 25.6045 24.8585 25.7641 25 25.7641C25.1415 25.7641 25.2373 25.6045 25.4287 25.2854L26.1478 24.087C27.0502 22.583 27.5014 21.831 27.5014 21C27.5014 20.169 27.0502 19.417 26.1478 17.913L25 16ZM25 16V14" stroke="#33363F" stroke-width="2"/>
<path d="M33.1603 24.5981L30.9296 24.5606C29.1759 24.5311 28.299 24.5163 27.5794 24.9318C26.8598 25.3473 26.4341 26.114 25.5828 27.6475L24.9045 28.8695C24.7238 29.1949 24.6335 29.3575 24.7043 29.4801C24.7751 29.6027 24.9611 29.6058 25.3332 29.6121L26.7306 29.6356C28.4844 29.6651 29.3612 29.6799 30.0808 29.2644C30.8005 28.8489 31.2261 28.0821 32.0774 26.5486L33.1603 24.5981ZM33.1603 24.5981L34.8923 23.5981" stroke="#33363F" stroke-width="2"/>
<path d="M16.8397 24.5981L19.0704 24.5606C20.8241 24.5311 21.701 24.5163 22.4206 24.9318C23.1402 25.3473 23.5659 26.114 24.4172 27.6475L25.0955 28.8695C25.2762 29.1949 25.3665 29.3575 25.2957 29.4801C25.2249 29.6027 25.0389 29.6058 24.6668 29.6121L23.2694 29.6356C21.5156 29.6651 20.6388 29.6799 19.9192 29.2644C19.1995 28.8489 18.7739 28.0821 17.9226 26.5486L16.8397 24.5981ZM16.8397 24.5981L15.1077 23.5981" stroke="#33363F" stroke-width="2"/>
<path d="M25 27V34.5" stroke="#33363F" stroke-width="2"/>
</svg>
