<svg width="50" height="48" viewBox="0 0 50 48" fill="none" xmlns="http://www.w3.org/2000/svg">
<rect width="50" height="48" rx="24" fill="white"/>
<path d="M30 23H30.8C31.9201 23 32.4802 23 32.908 23.218C33.2843 23.4097 33.5903 23.7157 33.782 24.092C34 24.5198 34 25.0799 34 26.2V29.8C34 30.9201 34 31.4802 33.782 31.908C33.5903 32.2843 33.2843 32.5903 32.908 32.782C32.4802 33 31.9201 33 30.8 33H19.2C18.0799 33 17.5198 33 17.092 32.782C16.7157 32.5903 16.4097 32.2843 16.218 31.908C16 31.4802 16 30.9201 16 29.8V26.2C16 25.0799 16 24.5198 16.218 24.092C16.4097 23.7157 16.7157 23.4097 17.092 23.218C17.5198 23 18.0799 23 19.2 23H20" stroke="#33363F" stroke-width="2" stroke-linecap="round"/>
<path d="M18.5 33L20 23M31.5 33L30 23" stroke="#33363F" stroke-width="2" stroke-linecap="round"/>
<path d="M25 29L25 26" stroke="#33363F" stroke-width="2" stroke-linecap="round"/>
<path d="M25 19V15.5C25 15.2643 25 15.1464 25.0732 15.0732C25.1464 15 25.2643 15 25.5 15H30L28.5 17L30 19H25ZM25 19V22" stroke="#33363F" stroke-width="2" stroke-linecap="round" stroke-linejoin="round"/>
</svg>
