<svg width="42" height="42" viewBox="0 0 42 42" fill="none" xmlns="http://www.w3.org/2000/svg">
<rect width="42" height="42" rx="20" fill="white"/>
<path d="M21.398 26.804L21.8585 27.6917L21.8585 27.6917L21.398 26.804ZM20.602 26.804L20.1415 27.6917L20.1415 27.6917L20.602 26.804ZM27 18C27 20.1458 25.9079 21.9159 24.545 23.2906C23.183 24.6644 21.6342 25.555 20.9376 25.9163L21.8585 27.6917C22.6448 27.2838 24.397 26.2805 25.9653 24.6987C27.5326 23.1178 29 20.8706 29 18H27ZM21 12C24.3137 12 27 14.6863 27 18H29C29 13.5817 25.4183 10 21 10V12ZM15 18C15 14.6863 17.6863 12 21 12V10C16.5817 10 13 13.5817 13 18H15ZM21.0624 25.9163C20.3658 25.555 18.817 24.6644 17.455 23.2906C16.0921 21.9159 15 20.1458 15 18H13C13 20.8706 14.4674 23.1178 16.0347 24.6987C17.603 26.2805 19.3552 27.2838 20.1415 27.6917L21.0624 25.9163ZM20.9376 25.9163C20.9514 25.9091 20.9733 25.9023 21 25.9023C21.0267 25.9023 21.0486 25.9091 21.0624 25.9163L20.1415 27.6917C20.6831 27.9726 21.3169 27.9726 21.8585 27.6917L20.9376 25.9163ZM23 18C23 19.1046 22.1046 20 21 20V22C23.2091 22 25 20.2091 25 18H23ZM21 16C22.1046 16 23 16.8954 23 18H25C25 15.7909 23.2091 14 21 14V16ZM19 18C19 16.8954 19.8954 16 21 16V14C18.7909 14 17 15.7909 17 18H19ZM21 20C19.8954 20 19 19.1046 19 18H17C17 20.2091 18.7909 22 21 22V20Z" fill="#33363F"/>
<path d="M28.7942 26.5C29.5841 26.9561 30 27.4734 30 28C30 28.5266 29.5841 29.0439 28.7942 29.5C28.0043 29.9561 26.8682 30.3348 25.5 30.5981C24.1318 30.8614 22.5798 31 21 31C19.4202 31 17.8682 30.8614 16.5 30.5981C15.1318 30.3348 13.9957 29.9561 13.2058 29.5C12.4159 29.0439 12 28.5266 12 28C12 27.4734 12.4159 26.9561 13.2058 26.5" stroke="#33363F" stroke-width="2" stroke-linecap="round"/>
</svg>
