<svg width="44" height="57" viewBox="0 0 44 57" fill="none" xmlns="http://www.w3.org/2000/svg">
<path d="M42.6889 27.5781C42.652 37.3567 35.6935 46 26.1891 46C16.5574 46 8.56088 38.9467 4.13941 27.1862C1.25389 17.081 0.26041 11.2664 1.56476 1.00872C9.99416 1.1768 17.4689 3.75796 24.7419 7.39443C35.5768 12.8119 41.2412 18.5812 42.6889 27.5781Z" stroke="#94BF5F" stroke-width="2"/>
<path d="M15.1891 17.5C17.4615 19.823 20.4685 23.1435 23.6118 27M40.1891 56.5C39.139 49.7796 34.3676 41.4788 28.9864 34M31.1891 22.5C31.8873 24 32.4243 28.4 28.9864 34M28.9864 34C27.2238 31.5503 25.3958 29.1888 23.6118 27M13.6891 23.5C14.9709 24.8333 18.7499 27.4 23.6118 27" stroke="#94BF5F" stroke-width="2"/>
</svg>
