<svg width="42" height="42" viewBox="0 0 42 42" fill="none" xmlns="http://www.w3.org/2000/svg">
<rect width="42" height="42" rx="20" fill="white"/>
<path d="M26.7071 22.7071L29.3552 25.3552C29.7113 25.7113 29.7113 26.2887 29.3552 26.6448C27.43 28.57 24.3821 28.7866 22.204 27.153L20.6286 25.9714C18.885 24.6638 17.3362 23.115 16.0286 21.3714L14.847 19.796C13.2134 17.6179 13.43 14.57 15.3552 12.6448C15.7113 12.2887 16.2887 12.2887 16.6448 12.6448L19.2929 15.2929C19.6834 15.6834 19.6834 16.3166 19.2929 16.7071L18.2717 17.7283C18.1095 17.8905 18.0692 18.1385 18.1719 18.3437C19.3585 20.7171 21.2829 22.6415 23.6563 23.8281C23.8615 23.9308 24.1095 23.8905 24.2717 23.7283L25.2929 22.7071C25.6834 22.3166 26.3166 22.3166 26.7071 22.7071Z" stroke="#33363F" stroke-width="2"/>
</svg>
